{"glyphs":{":":{"x_min":0,"x_max":170,"ha":170,"o":"m 130 105 l 130 -5 l 40 -5 l 40 105 z m 130 500 l 130 390 l 40 390 l 40 500 z"},"$":{"x_min":0,"x_max":445,"ha":445,"o":"m 35 530 q 35 611 72 656 q 110 700 190 708 l 190 790 l 250 790 l 250 709 q 288 707 322 702 q 355 696 375 690 l 375 645 l 250 645 l 250 385 q 278 372 307 357 q 336 342 358 319 q 381 296 396 262 q 410 229 410 180 q 410 96 374 50 q 337 5 250 -6 l 250 -90 l 190 -90 l 190 -10 l 185 -10 q 140 -10 99 -4 q 58 2 35 10 l 35 55 l 190 55 l 190 319 q 162 332 134 348 q 106 363 84 387 q 62 411 48 445 q 35 479 35 530 z m 320 180 q 320 222 300 247 q 280 272 250 289 l 250 66 q 288 80 304 108 q 320 135 320 180 z m 125 530 q 125 486 143 460 q 161 435 190 417 l 190 636 q 125 614 125 530 z"},"?":{"x_min":0,"x_max":370,"ha":370,"o":"m 105 185 q 105 229 116 261 q 126 293 142 318 q 159 344 178 366 q 196 387 212 410 q 229 432 240 458 q 250 485 250 520 q 250 584 222 614 q 193 645 140 645 l 10 645 l 10 690 q 33 698 74 704 q 115 710 160 710 q 251 710 296 664 q 340 618 340 520 q 340 478 328 446 q 317 415 300 390 q 283 365 262 344 q 242 322 225 298 q 208 275 196 248 q 185 221 185 185 z m 190 105 l 190 -5 l 100 -5 l 100 105 z"},"<":{"x_min":0,"x_max":400,"ha":400,"o":"m 130 249 l 360 105 l 360 10 l 40 210 l 40 295 l 360 495 l 360 400 l 130 256 z"},"'":{"x_min":0,"x_max":180,"ha":180,"o":"m 40 700 l 140 700 l 115 465 l 65 465 z"},"=":{"x_min":0,"x_max":430,"ha":430,"o":"m 400 250 l 400 175 l 30 175 l 30 250 z m 400 425 l 400 350 l 30 350 l 30 425 z"},"a":{"x_min":0,"x_max":450,"ha":450,"o":"m 295 245 l 225 245 q 187 245 161 226 q 135 206 135 150 q 135 120 142 100 q 149 81 161 70 q 173 59 190 54 q 206 50 225 50 q 244 50 264 56 q 284 62 295 70 z m 195 -10 q 161 -10 134 -4 q 106 3 86 21 q 67 39 56 70 q 45 101 45 150 q 45 197 56 227 q 67 257 86 274 q 106 292 134 298 q 161 305 195 305 q 218 305 245 302 q 272 299 295 295 l 295 340 q 295 374 288 396 q 280 417 266 429 q 252 441 232 446 q 211 450 185 450 l 85 450 l 85 490 q 108 498 142 504 q 175 510 205 510 q 250 510 284 503 q 317 496 340 478 q 362 459 374 426 q 385 392 385 340 l 385 0 l 310 0 l 305 30 l 300 30 q 281 11 253 0 q 225 -10 195 -10 z"},"L":{"x_min":0,"x_max":420,"ha":420,"o":"m 160 70 l 410 70 l 410 0 l 70 0 l 70 700 l 160 700 z"},"3":{"x_min":0,"x_max":415,"ha":415,"o":"m 175 710 q 355 710 355 525 q 355 468 332 432 q 310 395 265 372 l 265 368 q 295 360 316 342 q 337 325 350 301 q 363 277 369 248 q 375 220 375 190 q 375 85 326 38 q 277 -10 165 -10 q 120 -10 79 -4 q 38 2 15 10 l 15 55 l 145 55 q 220 55 252 86 q 285 118 285 190 q 285 265 252 298 q 220 330 145 330 l 75 330 l 75 400 l 135 400 q 203 400 234 430 q 265 461 265 525 q 265 585 236 615 q 208 645 155 645 l 25 645 l 25 690 q 48 698 89 704 q 130 710 175 710 z"},";":{"x_min":0,"x_max":165,"ha":165,"o":"m 130 500 l 130 390 l 40 390 l 40 500 z m 40 105 l 135 105 l 105 -115 l 40 -115 z"},"J":{"x_min":0,"x_max":350,"ha":350,"o":"m 90 55 q 116 55 136 64 q 157 72 171 93 q 185 114 192 150 q 200 186 200 240 l 200 700 l 290 700 l 290 240 q 290 169 278 121 q 267 73 242 44 q 218 15 180 2 q 142 -10 90 -10 q 67 -10 43 -4 q 19 2 0 10 l 0 55 z"},"V":{"x_min":0,"x_max":490,"ha":490,"o":"m 243 95 l 247 95 l 380 700 l 470 700 l 310 0 l 180 0 l 20 700 l 110 700 z"},"\"":{"x_min":0,"x_max":330,"ha":330,"o":"m 40 700 l 140 700 l 115 465 l 65 465 z m 190 700 l 290 700 l 265 465 l 215 465 z"},"7":{"x_min":0,"x_max":410,"ha":410,"o":"m 380 620 q 312 454 268 298 q 223 143 200 0 l 110 0 q 155 285 290 630 l 20 630 l 20 700 l 380 700 z"},"S":{"x_min":0,"x_max":445,"ha":445,"o":"m 35 530 q 35 621 81 666 q 127 710 225 710 q 270 710 311 704 q 352 698 375 690 l 375 645 l 245 645 q 125 645 125 530 q 125 484 146 457 q 167 430 199 412 q 231 393 268 378 q 304 362 336 338 q 368 315 389 278 q 410 241 410 180 q 410 131 398 96 q 386 60 360 36 q 333 13 290 2 q 247 -10 185 -10 q 140 -10 99 -4 q 58 2 35 10 l 35 55 l 165 55 q 251 55 286 86 q 320 116 320 180 q 320 224 299 249 q 278 274 246 292 q 214 309 178 325 q 141 341 109 365 q 77 389 56 428 q 35 466 35 530 z"},"}":{"x_min":0,"x_max":290,"ha":290,"o":"m 100 570 q 100 604 93 626 q 86 647 72 659 q 59 671 40 676 q 22 680 0 680 l 0 740 q 49 740 84 733 q 120 726 144 708 q 167 689 178 656 q 190 622 190 570 l 190 440 q 190 408 196 386 q 201 364 212 349 q 222 334 236 325 q 251 316 270 310 l 270 250 q 251 244 236 235 q 222 226 212 211 q 201 196 196 174 q 190 152 190 120 l 190 -10 q 190 -63 178 -96 q 167 -129 144 -148 q 120 -166 84 -173 q 49 -180 0 -180 l 0 -120 q 22 -120 40 -116 q 59 -111 72 -99 q 86 -87 93 -66 q 100 -44 100 -10 l 100 100 q 100 141 106 168 q 111 196 122 216 q 132 235 146 250 q 161 264 180 278 l 180 282 q 161 296 146 310 q 132 324 122 344 q 111 363 106 391 q 100 419 100 460 z"},"Z":{"x_min":0,"x_max":405,"ha":405,"o":"m 125 70 l 380 70 l 380 0 l 20 0 l 20 65 l 280 630 l 25 630 l 25 700 l 385 700 l 385 635 z"},"x":{"x_min":0,"x_max":400,"ha":400,"o":"m 291 500 l 381 500 l 260 255 l 385 0 l 295 0 l 200 195 l 105 0 l 15 0 l 140 255 l 19 500 l 109 500 l 200 315 z"},")":{"x_min":0,"x_max":246,"ha":246,"o":"m 196 280 q 196 231 190 177 q 183 123 167 64 q 151 5 124 -59 q 97 -123 56 -190 l 0 -160 q 25 -108 43 -56 q 61 -5 73 48 q 85 102 90 159 q 96 216 96 280 q 96 344 90 401 q 85 458 73 512 q 61 565 43 616 q 25 667 0 720 l 56 750 q 97 682 124 618 q 151 555 167 496 q 183 437 190 383 q 196 329 196 280 z"},"&":{"x_min":0,"x_max":515,"ha":515,"o":"m 405 0 l 350 80 q 337 57 324 40 q 310 24 293 12 q 276 1 252 -4 q 229 -10 195 -10 q 120 -10 78 36 q 35 82 35 180 q 35 225 41 266 q 47 307 55 330 l 125 330 l 125 180 q 125 141 132 116 q 138 92 148 78 q 159 65 172 60 q 184 55 195 55 q 210 55 222 60 q 234 64 245 76 q 256 87 268 108 q 280 128 295 160 q 241 237 206 292 q 172 346 153 388 q 134 430 127 463 q 120 496 120 530 q 120 621 164 666 q 207 710 290 710 q 335 710 376 704 q 417 698 440 690 l 440 645 l 310 645 q 265 645 238 616 q 210 587 210 530 q 210 506 214 481 q 217 456 229 424 q 241 393 265 352 q 289 311 330 255 l 385 390 l 475 390 l 385 170 l 505 0 z"},"_":{"x_min":0,"x_max":300,"ha":300,"o":"m 0 0 l 300 0 l 300 -70 l 0 -70 z"},"v":{"x_min":0,"x_max":430,"ha":430,"o":"m 150 0 l 15 500 l 100 500 l 213 85 l 217 85 l 330 500 l 415 500 l 280 0 z"},"O":{"x_min":0,"x_max":530,"ha":530,"o":"m 265 710 q 316 710 356 693 q 395 676 423 635 q 451 594 466 524 q 480 455 480 350 q 480 245 466 176 q 451 106 423 65 q 395 24 356 7 q 316 -10 265 -10 q 214 -10 174 7 q 135 24 107 65 q 79 106 64 176 q 50 245 50 350 q 50 455 64 524 q 79 594 107 635 q 135 676 174 693 q 214 710 265 710 z m 265 50 q 289 50 312 63 q 335 76 352 110 q 369 144 380 202 q 390 260 390 350 q 390 440 380 498 q 369 556 352 590 q 335 624 312 637 q 289 650 265 650 q 241 650 218 637 q 195 624 178 590 q 161 556 150 498 q 140 440 140 350 q 140 260 150 202 q 161 144 178 110 q 195 76 218 63 q 241 50 265 50 z"},"(":{"x_min":0,"x_max":246,"ha":246,"o":"m 50 280 q 50 329 56 383 q 63 437 79 496 q 95 555 122 618 q 149 682 190 750 l 246 720 q 221 667 203 616 q 185 565 173 512 q 161 458 156 401 q 150 344 150 280 q 150 216 156 159 q 161 102 173 48 q 185 -5 203 -56 q 221 -108 246 -160 l 190 -190 q 149 -123 122 -59 q 95 5 79 64 q 63 123 56 177 q 50 231 50 280 z"},"C":{"x_min":0,"x_max":435,"ha":435,"o":"m 270 -10 q 217 -10 176 7 q 136 24 108 65 q 79 106 64 176 q 50 245 50 350 q 50 455 64 524 q 79 594 106 635 q 133 676 172 693 q 211 710 260 710 q 305 710 346 704 q 387 698 410 690 l 410 645 l 280 645 q 250 645 224 632 q 199 619 180 586 q 161 552 150 495 q 140 438 140 350 q 140 262 151 205 q 162 148 182 114 q 201 81 228 68 q 256 55 290 55 l 420 55 l 420 10 q 397 2 356 -4 q 315 -10 270 -10 z"},"W":{"x_min":0,"x_max":720,"ha":720,"o":"m 405 570 l 515 160 l 520 160 l 610 700 l 700 700 l 585 0 l 475 0 l 362 420 l 358 420 l 245 0 l 135 0 l 20 700 l 110 700 l 200 160 l 205 160 l 315 570 z"},"A":{"x_min":0,"x_max":510,"ha":510,"o":"m 155 180 l 110 0 l 20 0 l 190 700 l 320 700 l 490 0 l 400 0 l 355 180 z m 257 600 l 253 600 l 170 250 l 340 250 z"},"f":{"x_min":0,"x_max":320,"ha":320,"o":"m 80 530 q 80 582 90 616 q 101 649 120 668 q 139 686 164 693 q 190 700 220 700 q 231 700 246 698 q 261 697 276 694 q 292 691 306 688 q 321 684 330 680 l 330 640 l 240 640 q 229 640 216 636 q 204 631 194 619 q 183 607 176 586 q 170 564 170 530 l 170 490 l 310 490 l 310 445 q 287 437 254 431 q 220 425 190 425 l 170 425 l 170 0 l 80 0 l 80 425 l 20 425 l 20 490 l 80 490 z"},"Q":{"x_min":0,"x_max":540,"ha":540,"o":"m 265 710 q 316 710 356 693 q 395 676 423 635 q 451 594 466 524 q 480 455 480 350 q 480 233 462 162 q 444 92 410 50 q 448 50 478 44 q 507 38 530 30 l 530 -10 l 265 -10 q 214 -10 174 7 q 135 24 107 65 q 79 106 64 176 q 50 245 50 350 q 50 455 64 524 q 79 594 107 635 q 135 676 174 693 q 214 710 265 710 z m 265 50 q 289 50 312 63 q 335 76 352 110 q 369 144 380 202 q 390 260 390 350 q 390 440 380 498 q 369 556 352 590 q 335 624 312 637 q 289 650 265 650 q 241 650 218 637 q 195 624 178 590 q 161 556 150 498 q 140 440 140 350 q 140 260 150 202 q 161 144 178 110 q 195 76 218 63 q 241 50 265 50 z"},"w":{"x_min":0,"x_max":610,"ha":610,"o":"m 303 270 l 215 0 l 105 0 l 15 500 l 100 500 l 169 120 l 174 120 l 265 400 l 345 400 l 436 120 l 441 120 l 510 500 l 595 500 l 505 0 l 395 0 l 307 270 z"},"-":{"x_min":0,"x_max":360,"ha":360,"o":"m 30 335 l 330 335 l 330 265 l 30 265 z"},"E":{"x_min":0,"x_max":450,"ha":450,"o":"m 160 70 l 410 70 l 410 0 l 70 0 l 70 700 l 410 700 l 410 630 l 160 630 l 160 400 l 380 400 l 380 330 l 160 330 z"},"s":{"x_min":0,"x_max":395,"ha":395,"o":"m 125 380 q 125 350 142 332 q 160 315 186 302 q 212 289 242 278 q 273 266 299 248 q 325 230 342 202 q 360 175 360 130 q 360 89 348 62 q 337 35 312 19 q 288 3 250 -4 q 212 -10 160 -10 q 130 -10 96 -4 q 63 2 40 10 l 40 50 l 140 50 q 208 50 239 68 q 270 85 270 130 q 270 160 252 178 q 235 195 209 208 q 183 221 152 232 q 122 244 96 262 q 70 280 52 308 q 35 335 35 380 q 35 455 80 482 q 125 510 215 510 q 245 510 278 504 q 312 498 335 490 l 335 450 l 235 450 q 182 450 154 434 q 125 418 125 380 z"},">":{"x_min":0,"x_max":400,"ha":400,"o":"m 270 256 l 40 400 l 40 495 l 360 295 l 360 210 l 40 10 l 40 105 l 270 249 z"},"l":{"x_min":0,"x_max":230,"ha":230,"o":"m 70 700 l 160 700 l 160 0 l 70 0 z"},"8":{"x_min":0,"x_max":480,"ha":480,"o":"m 240 710 q 425 710 425 535 q 425 500 416 472 q 406 444 391 423 q 376 402 357 388 q 338 374 320 367 l 320 363 q 342 353 364 337 q 385 321 402 298 q 419 275 430 246 q 440 216 440 180 q 440 82 393 36 q 346 -10 240 -10 q 134 -10 87 36 q 40 82 40 180 q 40 216 50 246 q 61 275 78 298 q 95 321 116 337 q 138 353 160 363 l 160 367 q 142 374 123 388 q 104 402 89 423 q 74 444 64 472 q 55 500 55 535 q 55 710 240 710 z m 240 50 q 293 50 322 81 q 350 112 350 180 q 350 236 320 269 q 289 302 240 325 q 191 302 160 269 q 130 236 130 180 q 130 112 158 81 q 187 50 240 50 z m 240 405 q 282 420 308 451 q 335 482 335 535 q 335 592 308 621 q 282 650 240 650 q 198 650 172 621 q 145 592 145 535 q 145 482 172 451 q 198 420 240 405 z"},"\\":{"x_min":0,"x_max":390,"ha":390,"o":"m 90 700 l 390 0 l 300 0 l 0 700 z"},"e":{"x_min":0,"x_max":440,"ha":440,"o":"m 395 220 l 135 220 q 135 171 143 138 q 151 106 168 86 q 184 67 210 58 q 237 50 275 50 l 375 50 l 375 10 q 352 2 318 -4 q 285 -10 255 -10 q 199 -10 159 2 q 119 15 94 45 q 68 75 56 125 q 45 175 45 250 q 45 325 56 375 q 67 425 89 455 q 111 485 144 498 q 177 510 220 510 q 263 510 296 498 q 329 485 351 455 q 373 425 384 375 q 395 325 395 250 z m 305 280 q 305 331 298 364 q 291 398 280 418 q 268 438 252 446 q 237 455 220 455 q 203 455 188 446 q 172 438 160 418 q 149 398 142 364 q 135 331 135 280 z"},"b":{"x_min":0,"x_max":470,"ha":470,"o":"m 160 485 q 183 496 206 503 q 230 510 260 510 q 299 510 330 498 q 361 485 382 455 q 403 425 414 375 q 425 325 425 250 q 425 175 414 125 q 402 75 378 45 q 354 15 318 2 q 281 -10 230 -10 q 185 -10 146 -2 q 108 5 70 20 l 70 700 l 160 700 z m 160 50 l 230 50 q 254 50 274 58 q 293 67 306 90 q 320 112 328 151 q 335 190 335 250 q 335 310 328 348 q 320 387 306 410 q 293 432 274 441 q 254 450 230 450 q 211 450 191 444 q 171 438 160 430 z"},"%":{"x_min":0,"x_max":680,"ha":680,"o":"m 580 700 l 190 0 l 100 0 l 490 700 z m 575 140 q 575 189 558 210 q 540 230 510 230 q 480 230 462 210 q 445 189 445 140 q 445 91 462 70 q 480 50 510 50 q 540 50 558 70 q 575 91 575 140 z m 650 140 q 650 65 614 28 q 578 -10 510 -10 q 442 -10 406 28 q 370 65 370 140 q 370 215 406 252 q 442 290 510 290 q 578 290 614 252 q 650 215 650 140 z m 235 560 q 235 609 218 630 q 200 650 170 650 q 140 650 122 630 q 105 609 105 560 q 105 511 122 490 q 140 470 170 470 q 200 470 218 490 q 235 511 235 560 z m 310 560 q 310 485 274 448 q 238 410 170 410 q 102 410 66 448 q 30 485 30 560 q 30 635 66 672 q 102 710 170 710 q 238 710 274 672 q 310 635 310 560 z"},"m":{"x_min":0,"x_max":690,"ha":690,"o":"m 390 0 l 300 0 l 300 360 q 300 386 293 404 q 286 421 275 432 q 264 442 250 446 q 235 450 220 450 q 201 450 184 444 q 166 438 155 430 l 155 0 l 65 0 l 65 500 l 140 500 l 145 470 l 150 470 q 169 489 192 500 q 216 510 250 510 q 284 510 313 500 q 342 491 362 466 q 374 477 390 485 q 406 493 422 498 q 439 504 456 507 q 472 510 485 510 q 515 510 540 504 q 566 497 585 480 q 604 463 614 434 q 625 405 625 360 l 625 0 l 535 0 l 535 360 q 535 386 528 404 q 521 421 510 432 q 499 442 484 446 q 470 450 455 450 q 432 450 412 444 q 391 438 380 430 q 384 419 387 401 q 390 383 390 360 z"},"#":{"x_min":0,"x_max":570,"ha":570,"o":"m 405 200 l 375 0 l 285 0 l 315 200 l 205 200 l 175 0 l 85 0 l 115 200 l 20 200 l 20 270 l 125 270 l 150 430 l 50 430 l 50 500 l 165 500 l 195 700 l 285 700 l 255 500 l 365 500 l 395 700 l 485 700 l 455 500 l 550 500 l 550 430 l 440 430 l 415 270 l 520 270 l 520 200 z m 210 270 l 330 270 l 355 430 l 235 430 z"},",":{"x_min":0,"x_max":170,"ha":170,"o":"m 40 105 l 135 105 l 105 -115 l 40 -115 z"},"n":{"x_min":0,"x_max":475,"ha":475,"o":"m 155 0 l 65 0 l 65 500 l 140 500 l 145 470 l 150 470 q 169 489 197 500 q 225 510 255 510 q 291 510 320 504 q 348 497 368 480 q 388 463 399 434 q 410 405 410 360 l 410 0 l 320 0 l 320 360 q 320 386 313 404 q 306 421 293 432 q 280 442 263 446 q 246 450 225 450 q 206 450 186 444 q 166 438 155 430 z"},"h":{"x_min":0,"x_max":480,"ha":480,"o":"m 160 0 l 70 0 l 70 700 l 160 700 l 160 485 q 183 496 210 503 q 236 510 270 510 q 302 510 328 504 q 355 497 374 480 q 394 463 404 434 q 415 405 415 360 l 415 0 l 325 0 l 325 360 q 325 386 318 404 q 311 421 298 432 q 285 442 268 446 q 251 450 230 450 q 211 450 191 444 q 171 438 160 430 z"},"z":{"x_min":0,"x_max":370,"ha":370,"o":"m 350 440 l 126 65 l 345 65 l 345 0 l 20 0 l 20 60 l 245 435 l 30 435 l 30 500 l 350 500 z"},"B":{"x_min":0,"x_max":500,"ha":500,"o":"m 350 373 q 410 356 435 307 q 460 258 460 190 q 460 137 448 100 q 436 62 409 38 q 382 13 338 2 q 294 -10 230 -10 q 185 -10 146 -6 q 108 -1 70 10 l 70 690 q 108 701 146 706 q 185 710 230 710 q 336 710 383 664 q 430 619 430 525 q 430 480 412 441 q 395 402 350 377 z m 160 335 l 160 55 l 230 55 q 305 55 338 86 q 370 118 370 190 q 370 269 338 302 q 305 335 230 335 z m 220 400 q 340 400 340 525 q 340 645 220 645 l 160 645 l 160 400 z"},"K":{"x_min":0,"x_max":490,"ha":490,"o":"m 480 0 l 375 0 l 160 350 l 160 0 l 70 0 l 70 700 l 160 700 l 160 360 l 355 700 l 460 700 l 255 355 z"},"R":{"x_min":0,"x_max":505,"ha":505,"o":"m 450 470 q 450 419 444 382 q 437 345 424 318 q 412 292 393 276 q 374 259 350 250 l 470 0 l 370 0 l 260 230 l 160 230 l 160 0 l 70 0 l 70 690 q 108 701 146 706 q 185 710 230 710 q 290 710 332 698 q 374 686 400 658 q 426 629 438 583 q 450 537 450 470 z m 230 300 q 264 300 288 308 q 313 317 329 336 q 345 356 352 388 q 360 421 360 470 q 360 521 352 554 q 345 588 329 608 q 313 628 288 636 q 264 645 230 645 l 160 645 l 160 300 z"},"T":{"x_min":0,"x_max":430,"ha":430,"o":"m 10 700 l 420 700 l 420 630 l 260 630 l 260 0 l 170 0 l 170 630 l 10 630 z"},"P":{"x_min":0,"x_max":490,"ha":490,"o":"m 230 275 q 264 275 288 284 q 313 292 329 313 q 345 334 352 370 q 360 406 360 460 q 360 514 352 550 q 345 586 329 607 q 313 628 288 636 q 264 645 230 645 l 160 645 l 160 275 z m 160 0 l 70 0 l 70 690 q 108 701 146 706 q 185 710 230 710 q 290 710 332 698 q 374 685 400 656 q 426 627 438 579 q 450 531 450 460 q 450 387 438 338 q 427 289 404 260 q 380 230 344 218 q 309 205 260 205 q 237 205 208 208 q 179 211 160 215 z"},"|":{"x_min":0,"x_max":230,"ha":230,"o":"m 160 700 l 160 -200 l 70 -200 l 70 700 z"},"t":{"x_min":0,"x_max":345,"ha":345,"o":"m 170 425 l 170 160 q 170 126 176 104 q 183 83 194 71 q 204 59 216 54 q 229 50 240 50 l 330 50 l 330 10 q 321 6 306 2 q 292 -1 276 -4 q 261 -7 246 -8 q 231 -10 220 -10 q 190 -10 164 -3 q 139 4 120 22 q 101 41 90 74 q 80 107 80 160 l 80 425 l 20 425 l 20 490 l 80 490 l 80 610 l 170 610 l 170 490 l 310 490 l 310 445 q 287 437 254 431 q 220 425 190 425 z"},"M":{"x_min":0,"x_max":740,"ha":740,"o":"m 325 90 l 180 520 l 175 520 l 145 0 l 55 0 l 95 700 l 205 700 l 368 220 l 372 220 l 535 700 l 645 700 l 685 0 l 595 0 l 565 520 l 560 520 l 415 90 z"},"g":{"x_min":0,"x_max":465,"ha":465,"o":"m 310 15 q 287 4 264 -3 q 240 -10 210 -10 q 171 -10 140 2 q 109 15 88 45 q 67 75 56 125 q 45 175 45 250 q 45 325 56 375 q 68 425 92 455 q 116 485 152 498 q 189 510 240 510 q 285 510 324 502 q 362 495 400 480 l 400 40 q 400 -31 388 -79 q 377 -127 352 -156 q 328 -185 290 -198 q 252 -210 200 -210 q 170 -210 136 -204 q 103 -198 80 -190 l 80 -150 l 180 -150 q 214 -150 238 -142 q 263 -134 279 -114 q 295 -95 302 -64 q 310 -32 310 15 z m 310 450 l 240 450 q 216 450 196 441 q 177 432 164 410 q 150 387 142 348 q 135 310 135 250 q 135 190 142 151 q 150 112 164 90 q 177 67 196 58 q 216 50 240 50 q 259 50 279 56 q 299 62 310 70 z"},"j":{"x_min":0,"x_max":240,"ha":240,"o":"m 170 -40 q 170 -93 160 -126 q 149 -159 130 -178 q 111 -196 86 -203 q 60 -210 30 -210 q 7 -210 -17 -204 q -41 -198 -60 -190 l -60 -150 l 10 -150 q 21 -150 34 -146 q 46 -141 56 -129 q 67 -117 74 -96 q 80 -74 80 -40 l 80 500 l 170 500 z m 170 680 l 170 570 l 80 570 l 80 680 z"},"i":{"x_min":0,"x_max":230,"ha":230,"o":"m 160 0 l 70 0 l 70 500 l 160 500 z m 160 680 l 160 570 l 70 570 l 70 680 z"},"y":{"x_min":0,"x_max":475,"ha":475,"o":"m 220 -10 q 184 -10 156 -4 q 127 3 107 20 q 87 37 76 66 q 65 95 65 140 l 65 500 l 155 500 l 155 140 q 155 114 162 96 q 169 79 182 68 q 195 58 212 54 q 229 50 250 50 q 269 50 289 56 q 309 62 320 70 l 320 500 l 410 500 l 410 40 q 410 -31 398 -79 q 387 -127 362 -156 q 338 -185 300 -198 q 262 -210 210 -210 q 180 -210 146 -204 q 113 -198 90 -190 l 90 -150 l 190 -150 q 224 -150 248 -142 q 273 -134 289 -114 q 305 -95 312 -64 q 320 -32 320 15 q 297 4 274 -3 q 250 -10 220 -10 z"},"@":{"x_min":0,"x_max":830,"ha":830,"o":"m 450 480 q 420 480 398 472 q 375 463 360 442 q 345 420 338 383 q 330 346 330 290 q 330 249 337 220 q 344 192 356 174 q 368 156 384 148 q 401 140 420 140 q 439 140 459 146 q 479 152 490 160 l 490 480 z m 580 155 q 606 155 626 164 q 647 173 661 196 q 675 220 682 260 q 690 301 690 365 q 690 505 618 578 q 546 650 410 650 q 346 650 296 632 q 246 614 212 574 q 177 533 158 468 q 140 404 140 310 q 140 218 159 154 q 178 90 216 50 q 255 11 313 -7 q 371 -25 450 -25 l 580 -25 l 580 -70 q 557 -78 516 -84 q 475 -90 430 -90 q 242 -90 146 8 q 50 107 50 310 q 50 512 144 611 q 237 710 410 710 q 500 710 569 686 q 638 663 685 618 q 732 574 756 510 q 780 446 780 365 q 780 288 766 236 q 753 183 721 150 q 689 118 636 104 q 584 90 505 90 l 500 120 l 495 120 q 476 101 448 90 q 420 80 390 80 q 360 80 333 92 q 306 103 285 128 q 264 154 252 194 q 240 234 240 290 q 240 361 252 409 q 263 457 288 486 q 314 515 354 528 q 394 540 450 540 q 465 540 483 538 q 501 537 519 534 q 537 531 553 528 q 569 524 580 520 z"},".":{"x_min":0,"x_max":170,"ha":170,"o":"m 130 105 l 130 -5 l 40 -5 l 40 105 z"},"p":{"x_min":0,"x_max":465,"ha":465,"o":"m 150 470 q 169 489 197 500 q 225 510 255 510 q 294 510 325 498 q 356 485 377 455 q 398 425 409 375 q 420 325 420 250 q 420 175 409 125 q 398 75 377 45 q 356 15 325 2 q 294 -10 255 -10 q 225 -10 202 -3 q 178 4 155 15 l 155 -200 l 65 -200 l 65 500 l 140 500 l 145 470 z m 155 70 q 166 62 186 56 q 206 50 225 50 q 249 50 268 58 q 288 67 302 90 q 315 112 322 151 q 330 190 330 250 q 330 310 322 348 q 315 387 302 410 q 288 432 268 441 q 249 450 225 450 q 206 450 186 444 q 166 438 155 430 z"},"X":{"x_min":0,"x_max":460,"ha":460,"o":"m 340 700 l 430 700 l 295 360 l 445 0 l 355 0 l 230 300 l 105 0 l 15 0 l 165 360 l 30 700 l 120 700 l 230 420 z"},"*":{"x_min":0,"x_max":430,"ha":430,"o":"m 215 455 l 145 325 l 80 360 l 150 490 l 20 515 l 36 585 l 175 555 l 175 700 l 255 700 l 255 555 l 394 585 l 410 515 l 280 490 l 350 360 l 285 325 z"},"Y":{"x_min":0,"x_max":450,"ha":450,"o":"m 350 700 l 440 700 l 270 220 l 270 0 l 180 0 l 180 220 l 10 700 l 100 700 l 225 345 z"},"c":{"x_min":0,"x_max":375,"ha":375,"o":"m 250 450 q 222 450 200 441 q 179 432 164 410 q 150 387 142 348 q 135 310 135 250 q 135 190 142 151 q 150 112 166 90 q 181 67 204 58 q 228 50 260 50 l 360 50 l 360 10 q 337 2 304 -4 q 270 -10 240 -10 q 189 -10 152 2 q 116 15 92 45 q 68 75 56 125 q 45 175 45 250 q 45 325 56 375 q 68 425 91 455 q 114 485 148 498 q 183 510 230 510 q 260 510 294 504 q 327 498 350 490 l 350 450 z"},"!":{"x_min":0,"x_max":230,"ha":230,"o":"m 73 185 l 60 700 l 170 700 l 153 185 z m 158 105 l 158 -5 l 68 -5 l 68 105 z"},"/":{"x_min":0,"x_max":390,"ha":390,"o":"m 390 700 l 90 0 l 0 0 l 300 700 z"},"[":{"x_min":0,"x_max":260,"ha":260,"o":"m 260 680 l 160 680 l 160 -120 l 260 -120 l 260 -180 l 70 -180 l 70 740 l 260 740 z"},"6":{"x_min":0,"x_max":455,"ha":455,"o":"m 245 710 q 290 710 331 704 q 372 698 395 690 l 395 645 l 265 645 q 237 645 214 632 q 191 620 174 592 q 158 563 149 516 q 140 469 140 400 q 163 408 196 414 q 230 420 260 420 q 335 420 378 370 q 420 320 420 200 q 420 87 374 38 q 329 -10 235 -10 q 141 -10 96 38 q 50 87 50 200 l 50 420 q 50 499 63 554 q 76 609 100 644 q 125 678 162 694 q 198 710 245 710 z m 140 360 l 140 200 q 140 159 147 130 q 154 102 167 84 q 180 66 197 58 q 214 50 235 50 q 256 50 273 58 q 290 66 303 84 q 316 102 323 130 q 330 159 330 200 q 330 290 300 325 q 269 360 205 360 z"},"r":{"x_min":0,"x_max":335,"ha":335,"o":"m 155 0 l 65 0 l 65 500 l 141 500 l 146 460 l 151 460 q 169 475 200 488 q 230 500 275 500 l 325 500 l 325 425 l 225 425 q 206 425 188 420 q 170 416 155 405 z"},"2":{"x_min":0,"x_max":390,"ha":390,"o":"m 10 80 q 85 174 135 236 q 185 297 215 342 q 245 387 258 423 q 270 459 270 500 q 270 579 242 612 q 213 645 160 645 l 20 645 l 20 690 q 43 698 84 704 q 125 710 170 710 q 268 710 314 662 q 360 613 360 500 q 360 451 345 409 q 330 367 298 319 q 267 271 219 212 q 171 152 105 70 l 360 70 l 360 0 l 10 0 z"},"{":{"x_min":0,"x_max":290,"ha":290,"o":"m 190 460 q 190 419 184 391 q 179 363 168 344 q 158 324 144 310 q 129 296 110 282 l 110 278 q 129 264 144 250 q 158 235 168 216 q 179 196 184 168 q 190 141 190 100 l 190 -10 q 190 -44 197 -66 q 204 -87 218 -99 q 231 -111 249 -116 q 267 -120 290 -120 l 290 -180 q 241 -180 206 -173 q 170 -166 146 -148 q 123 -129 112 -96 q 100 -63 100 -10 l 100 120 q 100 152 94 174 q 89 196 78 211 q 68 226 54 235 q 39 244 20 250 l 20 310 q 39 316 54 325 q 68 334 78 349 q 89 364 94 386 q 100 408 100 440 l 100 570 q 100 622 112 656 q 123 689 146 708 q 170 726 206 733 q 241 740 290 740 l 290 680 q 267 680 249 676 q 231 671 218 659 q 204 647 197 626 q 190 604 190 570 z"},"9":{"x_min":0,"x_max":455,"ha":455,"o":"m 210 -10 q 165 -10 124 -4 q 83 2 60 10 l 60 55 l 190 55 q 218 55 241 68 q 264 80 280 108 q 297 137 306 184 q 315 231 315 300 q 292 292 258 286 q 225 280 195 280 q 120 280 78 330 q 35 380 35 500 q 35 613 80 662 q 126 710 220 710 q 314 710 360 662 q 405 613 405 500 l 405 280 q 405 201 392 146 q 379 91 354 56 q 330 22 294 6 q 257 -10 210 -10 z m 315 340 l 315 500 q 315 541 308 570 q 301 598 288 616 q 275 634 258 642 q 241 650 220 650 q 199 650 182 642 q 165 634 152 616 q 139 598 132 570 q 125 541 125 500 q 125 410 156 375 q 186 340 250 340 z"}," ":{"x_min":0,"x_max":250,"ha":250,"o":""},"I":{"x_min":0,"x_max":230,"ha":230,"o":"m 160 700 l 160 0 l 70 0 l 70 700 z"},"H":{"x_min":0,"x_max":530,"ha":530,"o":"m 460 700 l 460 0 l 370 0 l 370 320 l 160 320 l 160 0 l 70 0 l 70 700 l 160 700 l 160 390 l 370 390 l 370 700 z"},"4":{"x_min":0,"x_max":470,"ha":470,"o":"m 30 180 l 30 260 l 280 700 l 380 700 l 380 250 l 440 250 l 440 180 l 380 180 l 380 0 l 290 0 l 290 180 z m 286 555 l 115 250 l 290 250 l 290 555 z"},"~":{"x_min":0,"x_max":450,"ha":450,"o":"m 350 200 q 350 234 338 254 q 326 275 300 275 q 283 275 270 262 q 257 250 242 235 q 226 220 205 208 q 184 195 150 195 q 116 195 93 206 q 70 217 56 238 q 42 259 36 290 q 30 321 30 360 l 100 360 q 100 326 112 306 q 124 285 150 285 q 167 285 180 298 q 193 310 208 325 q 224 340 245 352 q 266 365 300 365 q 367 365 394 322 q 420 279 420 200 z"},"D":{"x_min":0,"x_max":520,"ha":520,"o":"m 470 350 q 470 245 455 176 q 440 106 410 65 q 380 24 335 7 q 290 -10 230 -10 q 185 -10 146 -6 q 108 -1 70 10 l 70 690 q 108 701 146 706 q 185 710 230 710 q 290 710 335 693 q 380 676 410 635 q 440 594 455 524 q 470 455 470 350 z m 380 350 q 380 438 369 495 q 358 552 338 586 q 319 619 292 632 q 264 645 230 645 l 160 645 l 160 55 l 230 55 q 264 55 292 68 q 319 81 338 114 q 358 148 369 205 q 380 262 380 350 z"},"^":{"x_min":0,"x_max":445,"ha":445,"o":"m 95 410 l 30 450 l 180 700 l 265 700 l 415 450 l 350 410 l 225 610 l 220 610 z"},"0":{"x_min":0,"x_max":510,"ha":510,"o":"m 255 710 q 302 710 340 693 q 378 676 404 635 q 431 594 446 524 q 460 455 460 350 q 460 245 446 176 q 431 106 404 65 q 378 24 340 7 q 302 -10 255 -10 q 208 -10 170 7 q 132 24 106 65 q 79 106 64 176 q 50 245 50 350 q 50 455 64 524 q 79 594 106 635 q 132 676 170 693 q 208 710 255 710 z m 255 50 q 276 50 296 63 q 317 76 334 110 q 350 144 360 202 q 370 260 370 350 q 370 440 360 498 q 350 556 334 590 q 317 624 296 637 q 276 650 255 650 q 234 650 214 637 q 193 624 176 590 q 160 556 150 498 q 140 440 140 350 q 140 260 150 202 q 160 144 176 110 q 193 76 214 63 q 234 50 255 50 z"},"F":{"x_min":0,"x_max":430,"ha":430,"o":"m 160 0 l 70 0 l 70 700 l 410 700 l 410 630 l 160 630 l 160 385 l 370 385 l 370 315 l 160 315 z"},"`":{"x_min":0,"x_max":170,"ha":170,"o":"m 90 540 l 20 700 l 115 700 l 150 540 z"},"k":{"x_min":0,"x_max":435,"ha":435,"o":"m 160 260 l 160 0 l 70 0 l 70 700 l 160 700 l 160 270 l 305 500 l 405 500 l 250 265 l 425 0 l 325 0 z"},"u":{"x_min":0,"x_max":475,"ha":475,"o":"m 320 500 l 410 500 l 410 0 l 335 0 l 330 30 l 325 30 q 306 11 278 0 q 250 -10 220 -10 q 184 -10 156 -4 q 127 3 107 20 q 87 37 76 66 q 65 95 65 140 l 65 500 l 155 500 l 155 140 q 155 114 162 96 q 169 79 182 68 q 195 58 212 54 q 229 50 250 50 q 269 50 289 56 q 309 62 320 70 z"},"]":{"x_min":0,"x_max":260,"ha":260,"o":"m 0 740 l 190 740 l 190 -180 l 0 -180 l 0 -120 l 100 -120 l 100 680 l 0 680 z"},"U":{"x_min":0,"x_max":520,"ha":520,"o":"m 260 50 q 286 50 306 58 q 327 67 341 88 q 355 110 362 147 q 370 184 370 240 l 370 700 l 460 700 l 460 240 q 460 169 448 121 q 437 73 412 44 q 388 15 350 2 q 312 -10 260 -10 q 207 -10 170 2 q 132 15 108 44 q 83 73 72 121 q 60 169 60 240 l 60 700 l 150 700 l 150 240 q 150 184 158 147 q 165 110 179 88 q 193 67 214 58 q 234 50 260 50 z"},"o":{"x_min":0,"x_max":460,"ha":460,"o":"m 325 250 q 325 310 317 350 q 309 389 296 412 q 283 436 266 446 q 249 455 230 455 q 211 455 194 446 q 177 436 164 412 q 151 389 143 350 q 135 310 135 250 q 135 190 143 150 q 151 111 164 88 q 177 64 194 54 q 211 45 230 45 q 249 45 266 54 q 283 64 296 88 q 309 111 317 150 q 325 190 325 250 z m 415 250 q 415 177 403 127 q 391 77 368 46 q 344 16 310 3 q 275 -10 230 -10 q 185 -10 150 3 q 116 16 92 46 q 69 77 57 127 q 45 177 45 250 q 45 323 57 373 q 69 423 92 454 q 116 484 150 497 q 185 510 230 510 q 275 510 310 497 q 344 484 368 454 q 391 423 403 373 q 415 323 415 250 z"},"N":{"x_min":0,"x_max":540,"ha":540,"o":"m 160 0 l 70 0 l 70 700 l 170 700 l 375 205 l 380 205 l 380 700 l 470 700 l 470 0 l 370 0 l 165 495 l 160 495 z"},"+":{"x_min":0,"x_max":430,"ha":430,"o":"m 255 500 l 255 335 l 400 335 l 400 265 l 255 265 l 255 100 l 175 100 l 175 265 l 30 265 l 30 335 l 175 335 l 175 500 z"},"G":{"x_min":0,"x_max":500,"ha":500,"o":"m 440 10 q 417 2 376 -4 q 335 -10 290 -10 q 230 -10 185 7 q 140 24 110 65 q 80 106 65 176 q 50 245 50 350 q 50 455 64 524 q 79 594 108 635 q 136 676 176 693 q 217 710 270 710 q 315 710 356 704 q 397 698 420 690 l 420 645 l 290 645 q 256 645 228 632 q 201 619 182 586 q 162 552 151 495 q 140 438 140 350 q 140 262 151 205 q 162 148 184 114 q 205 81 237 68 q 269 55 310 55 l 350 55 l 350 380 l 440 380 z"},"q":{"x_min":0,"x_max":465,"ha":465,"o":"m 310 15 q 287 4 264 -3 q 240 -10 210 -10 q 171 -10 140 2 q 109 15 88 45 q 67 75 56 125 q 45 175 45 250 q 45 325 56 375 q 68 425 92 455 q 116 485 152 498 q 189 510 240 510 q 285 510 324 502 q 362 495 400 480 l 400 -200 l 310 -200 z m 310 450 l 240 450 q 216 450 196 441 q 177 432 164 410 q 150 387 142 348 q 135 310 135 250 q 135 190 142 151 q 150 112 164 90 q 177 67 196 58 q 216 50 240 50 q 259 50 279 56 q 299 62 310 70 z"},"d":{"x_min":0,"x_max":470,"ha":470,"o":"m 315 30 q 296 11 268 0 q 240 -10 210 -10 q 171 -10 140 2 q 109 15 88 45 q 67 75 56 125 q 45 175 45 250 q 45 325 56 375 q 67 425 88 455 q 109 485 140 498 q 171 510 210 510 q 240 510 264 503 q 287 496 310 485 l 310 700 l 400 700 l 400 0 l 325 0 l 320 30 z m 310 430 q 299 438 279 444 q 259 450 240 450 q 216 450 196 441 q 177 432 164 410 q 150 387 142 348 q 135 310 135 250 q 135 190 142 151 q 150 112 164 90 q 177 67 196 58 q 216 50 240 50 q 259 50 279 56 q 299 62 310 70 z"},"1":{"x_min":0,"x_max":280,"ha":280,"o":"m 210 700 l 210 0 l 120 0 l 120 630 l 10 630 l 10 680 q 33 688 74 694 q 115 700 160 700 z"},"5":{"x_min":0,"x_max":445,"ha":445,"o":"m 150 410 l 195 410 q 307 410 356 361 q 405 312 405 200 q 405 144 394 104 q 382 64 356 38 q 331 13 291 2 q 251 -10 195 -10 q 150 -10 109 -4 q 68 2 45 10 l 45 55 l 175 55 q 250 55 282 88 q 315 121 315 200 q 315 279 282 312 q 250 345 175 345 l 60 345 l 60 700 l 385 700 l 385 635 l 150 635 z"}}}
